<?xml version="1.0" encoding="utf-8"?>
<!-- Generator: Adobe Illustrator 15.1.0, SVG Export Plug-In . SVG Version: 6.00 Build 0)  -->
<!DOCTYPE svg PUBLIC "-//W3C//DTD SVG 1.1//EN" "http://www.w3.org/Graphics/SVG/1.1/DTD/svg11.dtd">
<svg version="1.1" id="Layer_1" xmlns="http://www.w3.org/2000/svg" xmlns:xlink="http://www.w3.org/1999/xlink" x="0px" y="0px"
	 width="701px" height="491px" viewBox="0 0 701 491" enable-background="new 0 0 701 491" xml:space="preserve">
<path fill="#F1F0F0" d="M604.997,300.676c-0.008-0.019-0.011-0.036-0.011-0.036L503.654,115.779l28.255-18.858l0.019-0.01
	c32.668-21.237,52.174-57.164,52.174-96.101c0-0.271-0.009-0.54-0.01-0.81h-12.709c0.002,0.27,0.01,0.539,0.01,0.81
	c0,34.614-17.342,66.552-46.39,85.435c0,0-0.015,0.012-0.019,0.017c-0.015,0.01-0.029,0.013-0.029,0.013l-27.438,18.31
	l-6.132-11.188l27.886-18.611c0.021-0.015,0.036-0.034,0.056-0.048c0.035-0.024,0.078-0.036,0.113-0.062
	c24.572-16.613,39.242-44.227,39.242-73.866c0-0.271-0.008-0.54-0.01-0.81h-12.72c0.003,0.271,0.021,0.538,0.021,0.81
	c0,25.409-12.58,49.082-33.648,63.326c-0.014,0.009-0.023,0.021-0.038,0.031c-0.023,0.014-0.049,0.021-0.069,0.037l-26.968,17.999
	l-6.139-11.195l25.183-16.805c0.132-0.089,0.228-0.208,0.351-0.306c0.196-0.103,0.396-0.187,0.583-0.313
	c17.557-11.871,28.037-31.599,28.037-52.773c0-0.271-0.018-0.539-0.021-0.81h-12.709c0.004,0.271,0.021,0.538,0.021,0.81
	c0,16.943-8.39,32.732-22.443,42.232c-0.14,0.096-0.254,0.215-0.384,0.32c-0.159,0.089-0.329,0.154-0.485,0.258l-24.266,16.197
	l-6.146-11.212l23.361-15.583c0.101-0.068,0.169-0.159,0.267-0.23c0.187-0.101,0.379-0.18,0.56-0.301
	c10.536-7.125,16.826-18.969,16.826-31.679c0-0.271-0.015-0.54-0.021-0.81h-12.709c0.009,0.27,0.021,0.538,0.021,0.81
	c0,8.482-4.2,16.385-11.235,21.142c-0.102,0.069-0.181,0.158-0.276,0.231c-0.16,0.088-0.325,0.152-0.482,0.255L460.697,37.41
	l-11.442-20.869c-0.177-0.512-0.396-1.016-0.717-1.485c-2.843-4.211-4.345-9.138-4.345-14.247c0-0.271,0.012-0.54,0.021-0.81h-12.71
	c-0.006,0.27-0.021,0.538-0.021,0.81c0,6.834,1.809,13.45,5.229,19.288l0.011,0.024l13.36,24.371l-10.61,7.078l-13.688-24.96
	c-0.023-0.043-0.057-0.074-0.081-0.115c-0.005-0.009-0.007-0.017-0.007-0.017c-4.53-7.759-6.921-16.631-6.921-25.667
	c0-0.271,0.017-0.539,0.021-0.81h-12.711c-0.004,0.271-0.021,0.538-0.021,0.81c0,11.288,2.993,22.38,8.655,32.077
	c0.01,0.014,0.021,0.027,0.03,0.042l14.106,25.722l-10.634,7.094l-15.317-27.922c-0.005-0.01-0.014-0.019-0.014-0.019
	c-6.24-11.256-9.538-24.045-9.538-36.995c0-0.271,0.018-0.539,0.021-0.81h-12.719c-0.002,0.27-0.01,0.539-0.01,0.81
	c0,15.108,3.849,30.033,11.129,43.164c0.006,0.012,0.019,0.021,0.024,0.032l15.809,28.821l-10.562,7.046l-14.515-26.481
	c-0.021-0.039-0.05-0.068-0.072-0.106c-0.023-0.039-0.033-0.079-0.057-0.117c-9.463-15.762-14.466-33.867-14.466-52.359
	c0-0.271,0.008-0.54,0.011-0.81h-12.711c-0.002,0.27-0.011,0.539-0.011,0.81c0,20.745,5.603,41.062,16.202,58.765l15.007,27.379
	L189.024,218.649l-43.061-57.138c0,0-0.01-0.011-0.015-0.018c0,0-0.015-0.025-0.024-0.037
	c-28.747-37.396-72.242-58.845-119.334-58.845c-9.071,0-17.957,0.807-26.59,2.354v12.953c8.607-1.691,17.495-2.587,26.59-2.587
	c43.094,0,82.898,19.621,109.221,53.832l0.003,0.007l42.617,56.546l-10.545,7.035l-42.035-55.682l-0.008-0.008
	c-0.008-0.011-0.013-0.022-0.021-0.032C101.93,145.902,65.762,128.05,26.59,128.05c-9.123,0-18.018,0.992-26.59,2.857v13.05
	c8.528-2.079,17.432-3.19,26.59-3.19c35.17,0,67.645,16.021,89.111,43.956l0.008,0.014l41.583,55.082l-10.635,7.094l-40.574-53.832
	c0,0-0.012-0.018-0.017-0.026c-0.018-0.022-0.036-0.042-0.053-0.065l-0.304-0.402c-0.044-0.059-0.101-0.103-0.146-0.16
	c-19.033-24.75-47.76-38.942-78.974-38.942c-9.206,0-18.122,1.262-26.59,3.611v13.276c8.385-2.703,17.318-4.168,26.59-4.168
	c27.404,0,52.622,12.529,69.224,34.378l40.248,53.396l-10.586,7.066L86.092,208.8c-0.003-0.005-0.009-0.009-0.012-0.013
	c-13.956-18.701-36.19-29.865-59.49-29.865c-9.369,0-18.329,1.765-26.59,4.949v13.826c8.052-3.879,17.071-6.056,26.59-6.056
	c19.615,0,37.596,9.036,49.335,24.792c0,0,0.013,0.014,0.019,0.021l0.003,0.006l38.937,51.647L63.73,302.235
	c-0.023,0.014-0.039,0.035-0.06,0.05c-0.021,0.015-0.045,0.021-0.065,0.038c-11.054,7.764-24.893,12.402-37.015,12.402
	c-9.519,0-18.538-2.176-26.59-6.056v13.824c8.261,3.186,17.221,4.949,26.59,4.949c14.586,0,31.088-5.464,44.176-14.618l0.014-0.009
	l51.771-34.537l7.726,10.249l-54.203,36.173c-0.017,0.01-0.027,0.024-0.027,0.024c-0.032,0.02-0.048,0.028-0.065,0.038
	C61.436,334.839,44.357,340.16,26.59,340.16c-9.271,0-18.205-1.465-26.59-4.168v13.277c8.468,2.35,17.384,3.611,26.59,3.611
	c20.322,0,39.863-6.085,56.522-17.592l0.013-0.005l54.819-36.586l7.671,10.176l-55.733,37.197c-0.01,0.008-0.018,0.017-0.028,0.024
	l-0.025,0.014c-18.674,12.75-40.542,19.488-63.239,19.488c-9.158,0-18.062-1.11-26.59-3.189v13.054
	c8.572,1.865,17.467,2.857,26.59,2.857c25.237,0,49.554-7.49,70.331-21.658c0,0,0.011-0.006,0.017-0.007l56.346-37.607l7.661,10.165
	l-56.122,37.456c-0.016,0.009-0.025,0.022-0.042,0.034c-0.014,0.008-0.03,0.013-0.03,0.013
	c-23.042,15.915-50.064,24.321-78.161,24.321c-9.095,0-17.983-0.896-26.59-2.587V401.4c8.633,1.546,17.519,2.354,26.59,2.354
	c30.646,0,60.129-9.163,85.27-26.498c0,0,0.007-0.005,0.013-0.008l56.739-37.867L282.908,491h16.277
	c-10.294-15.641-18.007-32.841-22.818-50.877l36.12,47.922c0.703,0.998,1.426,1.977,2.148,2.955h16.174
	c-2.817-3.338-5.503-6.812-8.038-10.421c-11.181-15.923-18.997-33.638-23.22-52.321l30.709,40.68
	c5.205,8.052,11.167,15.421,17.743,22.062h18.904c-10.044-8.147-18.891-17.95-26.126-29.199
	c-8.601-13.372-14.454-28.194-17.359-43.693l28.596,37.941c0.265,0.351,0.561,0.666,0.878,0.949
	c9.597,14.211,22.11,25.74,36.466,34.002h35.684c-25.504-5.089-48.098-20.205-62.629-42.57c-10.27-15.809-15.7-34.177-15.7-53.124
	c0-53.813,43.751-97.594,97.53-97.594c36.604,0,69.675,20.153,86.553,52.634l0.442,0.807c6.987,13.749,10.528,28.604,10.528,44.153
	c0,47.244-33.718,86.75-78.335,95.694h35.612c33.099-19.057,55.433-54.813,55.433-95.694c0-17.59-4.014-34.403-11.933-49.975
	c-0.986-1.936-2.032-3.826-3.117-5.684l-24.772-45.198c15.045,10.518,27.792,24.446,37.046,41.062l0.862,1.568
	c9.561,17.781,14.625,37.9,14.625,58.226c0,38.612-17.873,73.121-45.767,95.694h18.947c24.417-24.562,39.53-58.394,39.53-95.694
	c0-22.155-5.458-44.091-15.767-63.536c-0.014-0.029-0.02-0.062-0.035-0.09l-0.239-0.439c-0.115-0.212-0.222-0.43-0.338-0.645
	c-0.185-0.34-0.386-0.672-0.573-1.01l-28.643-52.217c15.913,12.156,29.473,27.574,39.556,45.638l0.005,0.01v0.002
	c0.007,0.011,0.015,0.021,0.02,0.035c12.249,21.961,18.724,46.943,18.724,72.252c0,36.432-13.188,69.833-35.026,95.694h16.194
	c19.81-26.782,31.541-59.892,31.541-95.694c0-27.452-7.022-54.561-20.308-78.398c0,0-0.002-0.006-0.004-0.011l-30.74-56.048
	c15.409,12.579,28.771,27.827,39.22,45.304c16.055,26.857,24.543,57.688,24.543,89.153c0,35.33-10.592,68.226-28.75,95.694h15.018
	c16.779-27.999,26.442-60.736,26.442-95.694C630.74,361.947,621.833,329.257,604.997,300.676z M480.771,100.478l6.136,11.189
	l-10.591,7.068l-6.139-11.187L480.771,100.478z M270.684,327.004l-27.951-37.092l186.664-124.575l23.893,43.594
	c-3.007-0.148-6.021-0.249-9.043-0.249C365.489,208.682,297.981,257.785,270.684,327.004z M275.373,354.35l10.182,13.509
	c-1.016,5.898-1.731,11.897-2.087,17.994l-11.266-14.923C272.995,365.313,274.058,359.783,275.373,354.35z M195.722,290.723
	l7.669,10.159l-10.681,7.129l-7.662-10.164L195.722,290.723z M177.381,287.674l-7.67-10.176l10.658-7.113l7.678,10.17
	L177.381,287.674z M190.961,263.315l10.516-7.02l7.669,10.179l-10.507,7.013L190.961,263.315z M211.066,311.051l47.856,63.388
	c-0.732,6.533-1.125,13.164-1.161,19.879l-57.385-76.135L211.066,311.051z M206.315,283.655l10.498-7.009l7.662,10.164
	l-10.491,7.002L206.315,283.655z M219.739,259.403l-7.668-10.176l192.785-128.663l6.137,11.196L219.739,259.403z M417.128,142.956
	l6.135,11.188L235.067,279.743l-7.661-10.167L417.128,142.956z M442.792,110.536l-6.139-11.191l10.634-7.098l6.14,11.193
	L442.792,110.536z M459.566,114.632l6.134,11.187l-10.632,7.098l-6.136-11.187L459.566,114.632z M438.319,128.812l6.137,11.187
	l-10.584,7.063l-6.133-11.189L438.319,128.812z M421.604,124.678l-6.135-11.195l10.57-7.056l6.141,11.192L421.604,124.678z
	 M440.007,158.255l10.587-7.065l34.007,61.993c-5.3-1.188-10.658-2.166-16.069-2.886L440.007,158.255z M475.962,250.296
	l8.401,15.329c-12.805-3.966-26.304-6.066-40.117-6.066c-69.18,0-126.389,52.098-134.607,119.133l-10.567-14.02
	c14.147-67.215,73.857-117.835,145.174-117.835C455.034,246.837,465.657,248.036,475.962,250.296z M476.286,224.444
	c5.646,1.073,11.222,2.421,16.708,4.041l8.976,16.363c-5.729-2.205-11.601-4.066-17.573-5.608L476.286,224.444z M501.673,217.876
	l-40.467-73.77l10.634-7.097l48.24,87.948C514.082,222.275,507.934,219.921,501.673,217.876z M468.501,78.089l6.136,11.195
	l-10.597,7.071l-6.14-11.192L468.501,78.089z M456.218,55.684l6.146,11.213l-10.602,7.075l-6.15-11.212L456.218,55.684z
	 M434.998,69.841l6.151,11.214l-10.635,7.099l-6.152-11.216L434.998,69.841z M413.748,84.018l6.153,11.219l-10.568,7.054
	l-6.152-11.224L413.748,84.018z M392.566,98.146l6.153,11.226L204.403,239.057l-7.712-10.237L392.566,98.146z M186.096,235.888
	l7.716,10.237l-10.525,7.025l-7.727-10.235L186.096,235.888z M164.966,249.984l7.727,10.234l-10.648,7.108l-7.721-10.244
	L164.966,249.984z M140.867,281.461l-7.724-10.246l10.586-7.065l7.723,10.248L140.867,281.461z M156.206,301.806l-7.672-10.175
	l10.584-7.063l7.67,10.177L156.206,301.806z M163.875,311.979l10.58-7.063l7.663,10.166l-10.582,7.061L163.875,311.979z
	 M179.203,332.312l10.58-7.06l69.294,91.933c1.148,9.703,3.068,19.282,5.704,28.65L179.203,332.312z M261.703,357.022
	l-40.045-53.044l10.482-6.995l33.531,44.493C264.133,346.568,262.804,351.755,261.703,357.022z M271.331,412.32
	c-0.557-5.64-0.873-11.314-0.873-17.015c0-1.812,0.083-3.603,0.138-5.403l13.009,17.233c0.667,9.243,2.136,18.341,4.344,27.229
	L271.331,412.32z M279.819,339.124c23.406-68.396,88.247-117.723,164.427-117.723c5.472,0,10.911,0.273,16.312,0.79l7.523,13.728
	c-7.825-1.172-15.786-1.798-23.835-1.798c-73.686,0-135.928,49.788-155.013,117.494L279.819,339.124z M296.072,402.551
	c-0.114-2.409-0.193-4.818-0.193-7.245c0-4.365,0.229-8.678,0.599-12.949l12.165,16.14c0.193,8.238,1.121,16.391,2.766,24.367
	L296.072,402.551z M444.246,284.993c-60.787,0-110.239,49.484-110.239,110.312c0,5.935,0.487,11.812,1.416,17.6l-14.099-18.709
	c0.601-67.327,55.5-121.92,122.922-121.92c17.34,0,34.131,3.658,49.462,10.401l11.195,20.419
	C487.269,291.478,466.322,284.993,444.246,284.993z M502.829,272.87l-9.717-17.727c6.526,2.284,12.868,5.024,18.991,8.179
	l12.338,22.489C517.653,280.835,510.416,276.505,502.829,272.87z M521.407,253.853l-10.4-18.962
	c6.851,2.866,13.509,6.167,19.937,9.871l13.278,24.208C537.048,263.291,529.419,258.23,521.407,253.853z M540.409,235.593
	l-57.957-105.666l10.589-7.066L564.1,252.494C556.642,246.253,548.721,240.6,540.409,235.593z"/>
</svg>
