<?xml version="1.0" encoding="utf-8"?>
<!-- Generator: Adobe Illustrator 15.1.0, SVG Export Plug-In . SVG Version: 6.00 Build 0)  -->
<!DOCTYPE svg PUBLIC "-//W3C//DTD SVG 1.1//EN" "http://www.w3.org/Graphics/SVG/1.1/DTD/svg11.dtd">
<svg version="1.1" id="Layer_1" xmlns="http://www.w3.org/2000/svg" xmlns:xlink="http://www.w3.org/1999/xlink" x="0px" y="0px"
	 width="14px" height="13.972px" viewBox="0 0 14 13.972" enable-background="new 0 0 14 13.972" xml:space="preserve">
<g>
	<path fill="#FFFFFF" d="M0.112,13.208c0-0.184,0.066-0.338,0.199-0.464L11.684,1.37H4.285c-0.183,0-0.339-0.06-0.468-0.18
		C3.687,1.069,3.622,0.919,3.622,0.741s0.065-0.329,0.194-0.449c0.129-0.12,0.285-0.181,0.468-0.181h8.951
		c0.183,0,0.338,0.064,0.464,0.194c0.126,0.13,0.188,0.286,0.188,0.469v8.933c0,0.183-0.062,0.339-0.188,0.468
		c-0.126,0.129-0.281,0.194-0.464,0.194s-0.339-0.065-0.469-0.194c-0.129-0.13-0.193-0.287-0.193-0.47V2.335L1.238,13.671
		c-0.126,0.126-0.281,0.189-0.464,0.189c-0.183,0-0.339-0.067-0.468-0.199S0.112,13.378,0.112,13.208z"/>
</g>
</svg>
