<?xml version="1.0" encoding="utf-8"?>
<!-- Generator: Adobe Illustrator 15.1.0, SVG Export Plug-In . SVG Version: 6.00 Build 0)  -->
<!DOCTYPE svg PUBLIC "-//W3C//DTD SVG 1.1//EN" "http://www.w3.org/Graphics/SVG/1.1/DTD/svg11.dtd">
<svg version="1.1" id="Layer_1" xmlns="http://www.w3.org/2000/svg" xmlns:xlink="http://www.w3.org/1999/xlink" x="0px" y="0px"
	 width="14.852px" height="16px" viewBox="0 0 14.852 16" enable-background="new 0 0 14.852 16" xml:space="preserve">
<g>
	<path fill="#FFFFFF" d="M0,15.066V9.882c0-0.188,0.065-0.347,0.195-0.477c0.129-0.129,0.288-0.194,0.476-0.194
		c0.188,0,0.349,0.066,0.481,0.199c0.133,0.133,0.2,0.29,0.2,0.472v4.824H13.52V9.882c0-0.188,0.066-0.347,0.199-0.477
		c0.133-0.129,0.288-0.194,0.463-0.194c0.188,0,0.347,0.066,0.477,0.199s0.194,0.29,0.194,0.472v5.185
		c0,0.252-0.089,0.471-0.267,0.656C14.405,15.907,14.19,16,13.938,16H0.934c-0.253,0-0.472-0.093-0.657-0.277
		C0.092,15.538,0,15.319,0,15.066z M2.908,7.1c0-0.175,0.07-0.329,0.209-0.462S3.404,6.439,3.56,6.439
		c0.175,0,0.328,0.065,0.458,0.194l2.752,2.792V0.662c0-0.188,0.066-0.345,0.2-0.472C7.102,0.063,7.254,0,7.425,0
		C7.598,0,7.75,0.063,7.883,0.189c0.133,0.127,0.2,0.284,0.2,0.472v8.763l2.752-2.792c0.13-0.129,0.28-0.194,0.452-0.194
		c0.171,0,0.324,0.07,0.458,0.209c0.133,0.139,0.199,0.291,0.199,0.452c0,0.188-0.065,0.347-0.195,0.477l-3.861,3.841
		c-0.117,0.117-0.269,0.175-0.457,0.175c-0.188,0-0.344-0.059-0.467-0.175L3.103,7.577C2.973,7.447,2.908,7.289,2.908,7.1z"/>
</g>
</svg>
