<?xml version="1.0" encoding="utf-8"?>
<!-- Generator: Adobe Illustrator 15.1.0, SVG Export Plug-In . SVG Version: 6.00 Build 0)  -->
<!DOCTYPE svg PUBLIC "-//W3C//DTD SVG 1.1//EN" "http://www.w3.org/Graphics/SVG/1.1/DTD/svg11.dtd">
<svg version="1.1" id="Layer_1" xmlns="http://www.w3.org/2000/svg" xmlns:xlink="http://www.w3.org/1999/xlink" x="0px" y="0px"
	 width="48.501px" height="59.994px" viewBox="0 0 48.501 59.994" enable-background="new 0 0 48.501 59.994" xml:space="preserve">
<path fill="#CCCCCC" d="M37.875,4.999c1.713,0,3.104,1.388,3.104,3.094s-1.391,3.094-3.088,3.094
	c-0.107-0.003-0.381-0.031-0.662-0.072l-5.305-1.203l3.697-3.937C36.212,5.354,37.033,4.999,37.875,4.999 M37.875,0
	c-2.219,0-4.373,0.929-5.908,2.55l-9.677,10.304l13.998,3.175c0.219,0.035,1.025,0.158,1.588,0.158c4.479,0,8.121-3.631,8.121-8.094
	C45.996,3.631,42.353,0,37.875,0L37.875,0z M10.626,48.808c0.215,0,0.434,0.024,0.668,0.074l5.284,1.2l-3.697,3.936
	c-0.591,0.621-1.413,0.978-2.256,0.978c-1.712,0-3.104-1.389-3.104-3.095C7.522,50.195,8.914,48.808,10.626,48.808 M10.626,43.808
	c-4.478,0-8.121,3.631-8.121,8.093c0,4.463,3.643,8.094,8.121,8.094c2.22,0,4.374-0.93,5.909-2.55l9.676-10.303l-13.825-3.14
	C11.788,43.872,11.203,43.808,10.626,43.808L10.626,43.808z M10.626,10.825c2.413,0,4.55,1.533,5.319,3.816l0.011,0.031l0.011,0.031
	l3.811,10.834L8.732,21.681c-2.224-0.804-3.716-2.917-3.716-5.265C5.016,13.333,7.533,10.825,10.626,10.825 M28.732,34.459
	l10.98,3.836c2.256,0.779,3.773,2.902,3.773,5.283c0,3.083-2.518,5.592-5.611,5.592c-2.447,0-4.656-1.637-5.371-3.98l-0.031-0.101
	l-0.035-0.099L28.732,34.459 M10.626,5.825C4.767,5.825,0,10.576,0,16.416c0,4.456,2.834,8.465,7.053,9.976l15.418,5.385
	l5.233,14.869c1.354,4.438,5.535,7.523,10.17,7.523c5.859,0,10.627-4.751,10.627-10.591c0-4.51-2.873-8.53-7.146-10.007
	l-15.318-5.351L20.701,13.05C19.244,8.727,15.196,5.825,10.626,5.825L10.626,5.825"/>
</svg>
